<svg width="18" height="18" viewBox="0 0 24 24" fill="none" xmlns="http://www.w3.org/2000/svg">
<g clip-path="url(#clip0_602_4)">
<path fill-rule="evenodd" clip-rule="evenodd" d="M8.147 16.56C9.83 18.077 12.058 19 14.5 19C19.743 19 24 14.743 24 9.5C24 4.257 19.743 0 14.5 0C9.257 0 5 4.257 5 9.5C5 11.942 5.923 14.17 7.44 15.853L0 23.293L0.707001 24L8.147 16.56ZM14.5 1C9.809 1 6 4.809 6 9.5C6 14.191 9.809 18 14.5 18C19.191 18 23 14.191 23 9.5C23 4.809 19.191 1 14.5 1Z" fill="#9E9E9E"/>
</g>
<defs>
<clipPath id="clip0_602_4">
<rect width="24" height="24" fill="white" transform="matrix(-1 0 0 1 24 0)"/>
</clipPath>
</defs>
</svg>
