<?xml version="1.0" encoding="UTF-8"?> <svg xmlns="http://www.w3.org/2000/svg" width="66" height="93" viewBox="0 0 66 93" fill="none"> <path d="M58.9333 81H56.5333V92.0667H64.3333V90H58.9333V81ZM54.7333 81H46.4667V92.0667H54.8667V90H48.9333V87.2667H54.2667V85.4H48.9333V83H54.7333V81ZM45.2 81H36.1333V83.0667H39.4667V92.0667H41.8667V83.0667H45.2V81ZM42.4 73.3333H39.5333L41 69.2667L42.4 73.3333ZM43.8667 77.6H46.4L42.2667 66.5333H39.8L35.6 77.6H38.0667L38.9333 75.1333H43.0667L43.8667 77.6ZM28.6667 88.3333H26.3333C26.3333 91.0667 28.6 92.2667 31 92.2667C34 92.2667 35.6 90.7333 35.6 88.7333C35.6 86.2 33.1333 85.7333 32.3333 85.5333C29.5333 84.8 29.0667 84.7333 29.0667 83.8667C29.0667 82.9333 29.9333 82.6 30.7333 82.6C31.8667 82.6 32.8667 82.9333 32.9333 84.2667H35.2667C35.2667 81.7333 33.1333 80.7333 30.8667 80.7333C28.8667 80.7333 26.7333 81.8 26.7333 84.0667C26.7333 86.1333 28.4 86.8 30 87.2C31.6 87.6667 33.2667 87.8667 33.2667 89C33.2667 90.1333 31.9333 90.4 31.1333 90.4C29.8 90.4 28.6667 89.8667 28.6667 88.3333ZM29.4667 68.6C31.8667 68.6 32.6667 70 32.6667 72.2667C32.6667 74.7333 31.3333 75.6 29.9333 75.6H27.8V68.6667H29.4667V68.6ZM30.0667 66.5333H25.3333V77.6H30.0667C33.4667 77.6 35.0667 75.2 35.0667 72C35.0667 68.3333 32.9333 66.5333 30.0667 66.5333ZM24.8667 81H22.4667V92.0667H24.8667V81ZM20.8667 66.5333V73.9333L16.2667 66.5333H13.8667V77.6H16.1333V70.2L20.7333 77.6H23.1333V66.5333H20.8667ZM16.3333 82.8667C17.4 82.8667 18 83.3333 18 84.4C18 85.5333 17.4 86 16.3333 86H13.6667V82.8667H16.3333ZM17.2 81H11.2667V92.0667H13.6667V87.7333H16.0667C17.2667 87.7333 17.7333 88.2667 17.9333 89.4C18.0667 90.2667 18 91.3333 18.3333 92.0667H20.7333C20.2667 91.4667 20.3333 90.1333 20.2667 89.4667C20.2 88.3333 19.8667 87.2 18.6667 86.8667C19.8667 86.4 20.4 85.4 20.4 84.0667C20.4667 82.3333 19.2 81 17.2 81ZM9.26667 77.6H11.6667V66.5333H9.26667V77.6ZM2.53334 81H0.133331V92.0667H2.53334V88.5333L3.93333 87.1333L7.26667 92.0667H10.3333L5.6 85.4L9.93333 81.0667H6.93333L2.6 85.6667V81H2.53334ZM2.53334 66.5333H0.133331V77.6H7.93333V75.5333H2.53334V66.5333ZM45.3333 23.0667L64.6667 0H50.8667L30.3333 25.3333V0H18.9333V48H11.3333V0H0V58.1333H37.7333V48H30.3333V40.6667L37.8 31.6667L52.7333 58.1333H66L45.3333 23.0667Z" fill="#9E9E9E"></path> </svg> 